<svg width="128" height="128" viewBox="0 0 128 128" fill="none" xmlns="http://www.w3.org/2000/svg">
<rect width="128" height="128" fill="#005EB8"/>
<path d="M79.4287 10C83.689 10.0001 87.1424 13.4536 87.1426 17.7139V40.8574H110.286C114.546 40.8576 118 44.311 118 48.5713V79.4287C118 83.689 114.546 87.1424 110.286 87.1426H87.1426V110.286C87.1424 114.546 83.689 118 79.4287 118H48.5713C48.4165 118 48.2629 117.993 48.1104 117.984C47.2395 112.827 47.5942 107.619 48.791 102.452C49.7893 98.5628 51.1897 94.6057 52.834 90.7217C57.2166 80.9058 63.6532 71.5142 69.2979 63.2295C71.9226 64.935 74.5478 66.6397 77.1729 68.3447C77.4975 68.5545 77.8436 68.3894 77.8818 68.0049C78.8501 58.4579 79.8154 48.9098 80.7783 39.3623C80.8186 38.9547 80.4942 38.7096 80.1133 38.8604C70.8868 42.5038 61.6609 46.1501 52.4365 49.7988C52.0407 49.9556 51.9729 50.3746 52.2998 50.6475C53.593 51.7272 54.8864 52.8071 56.1797 53.8867C57.2111 54.7477 58.2434 55.6085 59.2754 56.4688C49.1641 64.7696 42.4845 76.0115 36.0928 87.1426H17.7139C13.4536 87.1423 10.0001 83.689 10 79.4287V48.5713C10.0001 44.311 13.4536 40.8576 17.7139 40.8574H40.8574V17.7139C40.8577 13.4536 44.311 10.0001 48.5713 10H79.4287ZM47.2314 116.373C47.2963 116.889 47.3735 117.404 47.4619 117.919C47.4346 117.915 47.4071 117.912 47.3799 117.908C47.3174 117.402 47.2674 116.89 47.2314 116.373Z" fill="white"/>
</svg>
