<svg width="128" height="128" viewBox="0 0 128 128" fill="none" xmlns="http://www.w3.org/2000/svg">
<rect width="128" height="128" fill="white"/>
<path d="M76.5713 20C80.0428 20 82.8574 22.8146 82.8574 26.2861V45.1426H101.714C105.185 45.1426 108 47.9572 108 51.4287V76.5713C108 80.0428 105.185 82.8574 101.714 82.8574H82.8574V101.714C82.8574 105.185 80.0428 108 76.5713 108H51.4287C51.3229 108 51.2178 107.997 51.1133 107.992C48.4967 92.4714 59.5694 76.3391 68.3389 63.4854C70.4547 64.8611 72.5704 66.237 74.6865 67.6123C75.011 67.8219 75.3571 67.6566 75.3955 67.2725C76.1867 59.4936 76.9759 51.7129 77.7617 43.9336C77.8018 43.5262 77.4774 43.2811 77.0967 43.4316C69.5784 46.3992 62.0601 49.3699 54.5439 52.3428C54.1485 52.4996 54.0806 52.9186 54.4072 53.1914C55.4609 54.0712 56.5156 54.9504 57.5693 55.8301C58.3819 56.5084 59.1947 57.1866 60.0078 57.8643C51.7828 64.6543 46.3706 73.7983 41.1895 82.8574H26.2861C22.8146 82.8574 20 80.0428 20 76.5713V51.4287C20 47.9572 22.8146 45.1426 26.2861 45.1426H45.1426V26.2861C45.1426 22.8146 47.9572 20 51.4287 20H76.5713ZM50.4678 107.927C50.4651 107.926 50.4626 107.925 50.46 107.925C50.4527 107.866 50.4433 107.808 50.4365 107.749C50.4463 107.808 50.4576 107.867 50.4678 107.927Z" fill="#005EB8"/>
</svg>
