<svg xmlns="http://www.w3.org/2000/svg" viewBox="0 0 400 250" width="400" height="250">
  <defs>
    <linearGradient id="bg" x1="0" y1="0" x2="1" y2="1">
      <stop offset="0" stop-color="#0F766E"/>
      <stop offset="1" stop-color="#0B5A54"/>
    </linearGradient>
  </defs>
  <rect width="400" height="250" fill="url(#bg)"/>
  <g opacity="0.16" stroke="#ffffff" fill="none">
    <circle cx="345" cy="35" r="70"/>
    <circle cx="345" cy="35" r="45"/>
    <path d="M0 200 L90 120 L170 200 L300 90"/>
  </g>
  <g transform="translate(24 178)">
    <rect width="46" height="46" rx="10" fill="#ffffff" fill-opacity="0.15"/>
    <g transform="translate(11 11)" stroke="#ffffff">
      <svg width="24" height="24" viewBox="0 0 24 24" fill="none"><path d="M12 3v15M7 6h10M4 10l3-4 3 4M14 10l3-4 3 4" stroke="currentColor" stroke-width="1.5" stroke-linecap="round" stroke-linejoin="round"/><path d="M4 10a3 3 0 0 0 6 0M14 10a3 3 0 0 0 6 0" stroke="currentColor" stroke-width="1.5"/><path d="M8 21h8" stroke="currentColor" stroke-width="1.5" stroke-linecap="round"/></svg>
    </g>
  </g>
</svg>
